<mxfile host="Electron" agent="Mozilla/5.0 (X11; Linux x86_64) AppleWebKit/537.36 (KHTML, like Gecko) draw.io/26.1.1 Chrome/132.0.6834.210 Electron/34.3.3 Safari/537.36" version="26.1.1">
  <diagram name="Página-1" id="flc5sUwKKdCrUPmqjPBa">
    <mxGraphModel dx="2868" dy="1750" grid="1" gridSize="10" guides="1" tooltips="1" connect="1" arrows="1" fold="1" page="1" pageScale="1" pageWidth="827" pageHeight="1169" math="0" shadow="0">
      <root>
        <mxCell id="0" />
        <mxCell id="1" parent="0" />
        <mxCell id="EY-6DQ8W8kvqgW8gxiSP-1" value="" style="verticalLabelPosition=bottom;verticalAlign=top;html=1;shadow=0;dashed=0;strokeWidth=1;shape=mxgraph.android.phone2;strokeColor=#314354;fillColor=#647687;fontColor=#ffffff;" parent="1" vertex="1">
          <mxGeometry x="630.03" y="40" width="400" height="760" as="geometry" />
        </mxCell>
        <mxCell id="EY-6DQ8W8kvqgW8gxiSP-2" value="&lt;sup&gt;&lt;font style=&quot;font-size: 15px;&quot;&gt;Usuario&lt;/font&gt;&lt;/sup&gt;" style="fillColor=none;strokeColor=none;html=1;fontSize=12;fontStyle=0;align=center;fontColor=#596780;fontStyle=1;fontSize=11" parent="1" vertex="1">
          <mxGeometry x="687.53" y="337" width="285" height="20" as="geometry" />
        </mxCell>
        <mxCell id="EY-6DQ8W8kvqgW8gxiSP-3" value="&lt;font style=&quot;font-size: 15px;&quot;&gt;Messina Cake&lt;/font&gt;" style="rounded=1;arcSize=9;align=left;spacingLeft=5;strokeColor=#4C9AFF;html=1;strokeWidth=2;fontSize=12" parent="1" vertex="1">
          <mxGeometry x="685.04" y="364" width="290" height="33" as="geometry" />
        </mxCell>
        <mxCell id="EY-6DQ8W8kvqgW8gxiSP-4" value="&lt;font style=&quot;font-size: 15px;&quot;&gt;Contraseña&lt;/font&gt;" style="fillColor=none;strokeColor=none;html=1;fontSize=11;fontStyle=0;align=center;fontColor=#596780;fontStyle=1;fontSize=11" parent="1" vertex="1">
          <mxGeometry x="687.53" y="417" width="285" height="20" as="geometry" />
        </mxCell>
        <mxCell id="EY-6DQ8W8kvqgW8gxiSP-5" value="&lt;font style=&quot;font-size: 15px;&quot;&gt;••••••••&lt;/font&gt;" style="rounded=1;arcSize=9;align=left;spacingLeft=5;strokeColor=#4C9AFF;html=1;strokeWidth=2;fontSize=12" parent="1" vertex="1">
          <mxGeometry x="685.04" y="444" width="290" height="33" as="geometry" />
        </mxCell>
        <mxCell id="EY-6DQ8W8kvqgW8gxiSP-6" value="&lt;font style=&quot;font-size: 15px;&quot;&gt;Iniciar sesión&lt;/font&gt;" style="rounded=1;fillColor=#0057D8;strokeColor=none;html=1;whiteSpace=wrap;fontColor=#ffffff;align=center;verticalAlign=middle;fontStyle=0;fontSize=12;sketch=0;" parent="1" vertex="1">
          <mxGeometry x="773.53" y="520" width="113" height="40" as="geometry" />
        </mxCell>
        <mxCell id="EY-6DQ8W8kvqgW8gxiSP-7" value="&lt;font style=&quot;font-size: 15px;&quot;&gt;Recuperar contraseña&lt;/font&gt;" style="rounded=1;fillColor=#0057D8;strokeColor=none;html=1;whiteSpace=wrap;fontColor=#ffffff;align=center;verticalAlign=middle;fontStyle=0;fontSize=12;sketch=0;" parent="1" vertex="1">
          <mxGeometry x="744.28" y="600" width="171.5" height="40" as="geometry" />
        </mxCell>
        <mxCell id="EY-6DQ8W8kvqgW8gxiSP-8" value="&lt;font style=&quot;font-size: 15px;&quot;&gt;Registrar&lt;/font&gt;" style="rounded=1;fillColor=#0057D8;strokeColor=none;html=1;whiteSpace=wrap;fontColor=#ffffff;align=center;verticalAlign=middle;fontStyle=0;fontSize=12;sketch=0;" parent="1" vertex="1">
          <mxGeometry x="917.03" y="120" width="86.5" height="40" as="geometry" />
        </mxCell>
        <mxCell id="EY-6DQ8W8kvqgW8gxiSP-9" value="&lt;font style=&quot;font-size: 15px;&quot;&gt;Idioma&lt;/font&gt;" style="strokeWidth=1;shadow=0;dashed=0;align=center;html=1;shape=mxgraph.mockup.forms.comboBox;strokeColor=#999999;fillColor=#ddeeff;align=left;fillColor2=#aaddff;mainText=;fontColor=#666666;fontSize=17;spacingLeft=3;gradientColor=none;" parent="1" vertex="1">
          <mxGeometry x="755.03" y="230" width="150" height="30" as="geometry" />
        </mxCell>
        <mxCell id="EY-6DQ8W8kvqgW8gxiSP-10" value="" style="verticalLabelPosition=bottom;verticalAlign=top;html=1;shadow=0;dashed=0;strokeWidth=1;shape=mxgraph.android.phone2;strokeColor=#314354;fillColor=#647687;fontColor=#ffffff;" parent="1" vertex="1">
          <mxGeometry x="1254" y="40" width="400" height="760" as="geometry" />
        </mxCell>
        <mxCell id="EY-6DQ8W8kvqgW8gxiSP-11" value="&lt;sup&gt;&lt;font style=&quot;font-size: 15px;&quot;&gt;Nombre&lt;/font&gt;&lt;/sup&gt;" style="fillColor=none;strokeColor=none;html=1;fontSize=12;fontStyle=0;align=center;fontColor=#596780;fontStyle=1;fontSize=11" parent="1" vertex="1">
          <mxGeometry x="1311.49" y="177" width="285" height="20" as="geometry" />
        </mxCell>
        <mxCell id="EY-6DQ8W8kvqgW8gxiSP-12" value="&lt;font style=&quot;font-size: 15px;&quot;&gt;Messina Cake&lt;/font&gt;" style="rounded=1;arcSize=9;align=left;spacingLeft=5;strokeColor=#4C9AFF;html=1;strokeWidth=2;fontSize=12" parent="1" vertex="1">
          <mxGeometry x="1309" y="204" width="290" height="33" as="geometry" />
        </mxCell>
        <mxCell id="EY-6DQ8W8kvqgW8gxiSP-16" value="&lt;font style=&quot;font-size: 15px;&quot;&gt;Registrar&lt;/font&gt;" style="rounded=1;fillColor=#0057D8;strokeColor=none;html=1;whiteSpace=wrap;fontColor=#ffffff;align=center;verticalAlign=middle;fontStyle=0;fontSize=12;sketch=0;" parent="1" vertex="1">
          <mxGeometry x="1411.1" y="680" width="85.75" height="40" as="geometry" />
        </mxCell>
        <mxCell id="EY-6DQ8W8kvqgW8gxiSP-17" value="&lt;font style=&quot;font-size: 15px;&quot;&gt;Volver atrás&lt;/font&gt;" style="rounded=1;fillColor=#0057D8;strokeColor=none;html=1;whiteSpace=wrap;fontColor=#ffffff;align=center;verticalAlign=middle;fontStyle=0;fontSize=12;sketch=0;" parent="1" vertex="1">
          <mxGeometry x="1281.75" y="120" width="102.25" height="40" as="geometry" />
        </mxCell>
        <mxCell id="EY-6DQ8W8kvqgW8gxiSP-19" value="&lt;sup&gt;&lt;font style=&quot;font-size: 15px;&quot;&gt;Repetir email&lt;/font&gt;&lt;/sup&gt;" style="fillColor=none;strokeColor=none;html=1;fontSize=12;fontStyle=0;align=center;fontColor=#596780;fontStyle=1;fontSize=11" parent="1" vertex="1">
          <mxGeometry x="1311.48" y="417" width="285" height="20" as="geometry" />
        </mxCell>
        <mxCell id="EY-6DQ8W8kvqgW8gxiSP-20" value="&lt;span style=&quot;font-size: 15px;&quot;&gt;MessinaCake@mail.com&lt;/span&gt;" style="rounded=1;arcSize=9;align=left;spacingLeft=5;strokeColor=#4C9AFF;html=1;strokeWidth=2;fontSize=12" parent="1" vertex="1">
          <mxGeometry x="1308.99" y="444" width="290" height="33" as="geometry" />
        </mxCell>
        <mxCell id="EY-6DQ8W8kvqgW8gxiSP-25" value="&lt;font style=&quot;font-size: 15px;&quot;&gt;Contraseña&lt;/font&gt;" style="fillColor=none;strokeColor=none;html=1;fontSize=11;fontStyle=0;align=center;fontColor=#596780;fontStyle=1;fontSize=11" parent="1" vertex="1">
          <mxGeometry x="1311.5" y="497" width="285" height="20" as="geometry" />
        </mxCell>
        <mxCell id="EY-6DQ8W8kvqgW8gxiSP-26" value="&lt;font style=&quot;font-size: 15px;&quot;&gt;••••••••&lt;/font&gt;" style="rounded=1;arcSize=9;align=left;spacingLeft=5;strokeColor=#4C9AFF;html=1;strokeWidth=2;fontSize=12" parent="1" vertex="1">
          <mxGeometry x="1309" y="527" width="290" height="33" as="geometry" />
        </mxCell>
        <mxCell id="EY-6DQ8W8kvqgW8gxiSP-27" value="&lt;font style=&quot;font-size: 15px;&quot;&gt;Repetir contraseña&lt;/font&gt;" style="fillColor=none;strokeColor=none;html=1;fontSize=11;fontStyle=0;align=center;fontColor=#596780;fontStyle=1;fontSize=11" parent="1" vertex="1">
          <mxGeometry x="1311.5" y="577" width="285" height="20" as="geometry" />
        </mxCell>
        <mxCell id="EY-6DQ8W8kvqgW8gxiSP-28" value="&lt;font style=&quot;font-size: 15px;&quot;&gt;••••••••&lt;/font&gt;" style="rounded=1;arcSize=9;align=left;spacingLeft=5;strokeColor=#4C9AFF;html=1;strokeWidth=2;fontSize=12" parent="1" vertex="1">
          <mxGeometry x="1309" y="607" width="290" height="33" as="geometry" />
        </mxCell>
        <mxCell id="EY-6DQ8W8kvqgW8gxiSP-29" value="&lt;sup&gt;&lt;font style=&quot;font-size: 15px;&quot;&gt;Usuario&lt;/font&gt;&lt;/sup&gt;" style="fillColor=none;strokeColor=none;html=1;fontSize=12;fontStyle=0;align=center;fontColor=#596780;fontStyle=1;fontSize=11" parent="1" vertex="1">
          <mxGeometry x="1311.49" y="257" width="285" height="20" as="geometry" />
        </mxCell>
        <mxCell id="EY-6DQ8W8kvqgW8gxiSP-30" value="&lt;font style=&quot;font-size: 15px;&quot;&gt;MessinaCake&lt;/font&gt;" style="rounded=1;arcSize=9;align=left;spacingLeft=5;strokeColor=#4C9AFF;html=1;strokeWidth=2;fontSize=12" parent="1" vertex="1">
          <mxGeometry x="1309" y="284" width="290" height="33" as="geometry" />
        </mxCell>
        <mxCell id="EY-6DQ8W8kvqgW8gxiSP-31" value="&lt;sup&gt;&lt;font style=&quot;font-size: 15px;&quot;&gt;Email&lt;/font&gt;&lt;/sup&gt;" style="fillColor=none;strokeColor=none;html=1;fontSize=12;fontStyle=0;align=center;fontColor=#596780;fontStyle=1;fontSize=11" parent="1" vertex="1">
          <mxGeometry x="1311.49" y="337" width="285" height="20" as="geometry" />
        </mxCell>
        <mxCell id="EY-6DQ8W8kvqgW8gxiSP-32" value="&lt;font style=&quot;font-size: 15px;&quot;&gt;MessinaCake@mail.com&lt;/font&gt;" style="rounded=1;arcSize=9;align=left;spacingLeft=5;strokeColor=#4C9AFF;html=1;strokeWidth=2;fontSize=12" parent="1" vertex="1">
          <mxGeometry x="1309" y="364" width="290" height="33" as="geometry" />
        </mxCell>
        <mxCell id="EY-6DQ8W8kvqgW8gxiSP-33" value="&lt;font style=&quot;font-size: 15px;&quot;&gt;Texto de ejemplo&lt;/font&gt;" style="text;html=1;align=center;verticalAlign=middle;whiteSpace=wrap;rounded=0;" parent="1" vertex="1">
          <mxGeometry x="1393.98" y="645" width="120.03" height="30" as="geometry" />
        </mxCell>
        <mxCell id="EY-6DQ8W8kvqgW8gxiSP-37" value="&lt;font style=&quot;font-size: 15px;&quot;&gt;Texto de ejemplo&lt;/font&gt;" style="text;html=1;align=center;verticalAlign=middle;whiteSpace=wrap;rounded=0;" parent="1" vertex="1">
          <mxGeometry x="770.02" y="487" width="120.03" height="30" as="geometry" />
        </mxCell>
        <mxCell id="EY-6DQ8W8kvqgW8gxiSP-38" value="" style="verticalLabelPosition=bottom;verticalAlign=top;html=1;shadow=0;dashed=0;strokeWidth=1;shape=mxgraph.android.phone2;strokeColor=#314354;fillColor=#647687;fontColor=#ffffff;" parent="1" vertex="1">
          <mxGeometry y="40" width="400" height="760" as="geometry" />
        </mxCell>
        <mxCell id="EY-6DQ8W8kvqgW8gxiSP-41" value="&lt;font style=&quot;font-size: 15px;&quot;&gt;Enviar&lt;/font&gt;" style="rounded=1;fillColor=#0057D8;strokeColor=none;html=1;whiteSpace=wrap;fontColor=#ffffff;align=center;verticalAlign=middle;fontStyle=0;fontSize=12;sketch=0;" parent="1" vertex="1">
          <mxGeometry x="163.51" y="497" width="72.9" height="40" as="geometry" />
        </mxCell>
        <mxCell id="EY-6DQ8W8kvqgW8gxiSP-42" value="&lt;font style=&quot;font-size: 15px;&quot;&gt;Volver atrás&lt;/font&gt;" style="rounded=1;fillColor=#0057D8;strokeColor=none;html=1;whiteSpace=wrap;fontColor=#ffffff;align=center;verticalAlign=middle;fontStyle=0;fontSize=12;sketch=0;" parent="1" vertex="1">
          <mxGeometry x="27.75" y="120" width="102.25" height="40" as="geometry" />
        </mxCell>
        <mxCell id="EY-6DQ8W8kvqgW8gxiSP-51" value="&lt;sup&gt;&lt;font style=&quot;font-size: 15px;&quot;&gt;Email&lt;/font&gt;&lt;/sup&gt;" style="fillColor=none;strokeColor=none;html=1;fontSize=12;fontStyle=0;align=center;fontColor=#596780;fontStyle=1;fontSize=11" parent="1" vertex="1">
          <mxGeometry x="57.460000000000036" y="390" width="285" height="20" as="geometry" />
        </mxCell>
        <mxCell id="EY-6DQ8W8kvqgW8gxiSP-52" value="&lt;font style=&quot;font-size: 15px;&quot;&gt;MessinaCake@mail.com&lt;/font&gt;" style="rounded=1;arcSize=9;align=left;spacingLeft=5;strokeColor=#4C9AFF;html=1;strokeWidth=2;fontSize=12" parent="1" vertex="1">
          <mxGeometry x="54.97000000000003" y="417" width="290" height="33" as="geometry" />
        </mxCell>
        <mxCell id="EY-6DQ8W8kvqgW8gxiSP-53" value="&lt;font style=&quot;font-size: 15px;&quot;&gt;Texto de ejemplo&lt;/font&gt;" style="text;html=1;align=center;verticalAlign=middle;whiteSpace=wrap;rounded=0;" parent="1" vertex="1">
          <mxGeometry x="139.99" y="457" width="120.03" height="30" as="geometry" />
        </mxCell>
        <mxCell id="EY-6DQ8W8kvqgW8gxiSP-54" value="" style="verticalLabelPosition=bottom;verticalAlign=top;html=1;shadow=0;dashed=0;strokeWidth=1;shape=mxgraph.android.phone2;strokeColor=#314354;fillColor=#647687;fontColor=#ffffff;" parent="1" vertex="1">
          <mxGeometry x="1253.98" y="1040" width="400" height="760" as="geometry" />
        </mxCell>
        <mxCell id="EY-6DQ8W8kvqgW8gxiSP-55" value="&lt;sup&gt;&lt;font style=&quot;font-size: 15px;&quot;&gt;Nombre&lt;/font&gt;&lt;/sup&gt;" style="fillColor=none;strokeColor=none;html=1;fontSize=12;fontStyle=0;align=center;fontColor=#596780;fontStyle=1;fontSize=11" parent="1" vertex="1">
          <mxGeometry x="1311.48" y="1267" width="285" height="20" as="geometry" />
        </mxCell>
        <mxCell id="EY-6DQ8W8kvqgW8gxiSP-56" value="&lt;font style=&quot;font-size: 15px;&quot;&gt;Messina Cake&lt;/font&gt;" style="rounded=1;arcSize=9;align=left;spacingLeft=5;strokeColor=#4C9AFF;html=1;strokeWidth=2;fontSize=12" parent="1" vertex="1">
          <mxGeometry x="1308.99" y="1294" width="290" height="33" as="geometry" />
        </mxCell>
        <mxCell id="EY-6DQ8W8kvqgW8gxiSP-58" value="&lt;font style=&quot;font-size: 15px;&quot;&gt;Volver atrás&lt;/font&gt;" style="rounded=1;fillColor=#0057D8;strokeColor=none;html=1;whiteSpace=wrap;fontColor=#ffffff;align=center;verticalAlign=middle;fontStyle=0;fontSize=12;sketch=0;" parent="1" vertex="1">
          <mxGeometry x="1281.73" y="1120" width="102.25" height="40" as="geometry" />
        </mxCell>
        <mxCell id="EY-6DQ8W8kvqgW8gxiSP-61" value="&lt;font style=&quot;font-size: 15px;&quot;&gt;Contraseña&lt;/font&gt;" style="fillColor=none;strokeColor=none;html=1;fontSize=11;fontStyle=0;align=center;fontColor=#596780;fontStyle=1;fontSize=11" parent="1" vertex="1">
          <mxGeometry x="1311.48" y="1510" width="285" height="20" as="geometry" />
        </mxCell>
        <mxCell id="EY-6DQ8W8kvqgW8gxiSP-62" value="&lt;font style=&quot;font-size: 15px;&quot;&gt;••••••••&lt;/font&gt;" style="rounded=1;arcSize=9;align=left;spacingLeft=5;strokeColor=#4C9AFF;html=1;strokeWidth=2;fontSize=12" parent="1" vertex="1">
          <mxGeometry x="1308.98" y="1540" width="290" height="33" as="geometry" />
        </mxCell>
        <mxCell id="EY-6DQ8W8kvqgW8gxiSP-65" value="&lt;sup&gt;&lt;font style=&quot;font-size: 15px;&quot;&gt;Usuario&lt;/font&gt;&lt;/sup&gt;" style="fillColor=none;strokeColor=none;html=1;fontSize=12;fontStyle=0;align=center;fontColor=#596780;fontStyle=1;fontSize=11" parent="1" vertex="1">
          <mxGeometry x="1311.48" y="1347" width="285" height="20" as="geometry" />
        </mxCell>
        <mxCell id="EY-6DQ8W8kvqgW8gxiSP-66" value="&lt;font style=&quot;font-size: 15px;&quot;&gt;MessinaCake&lt;/font&gt;" style="rounded=1;arcSize=9;align=left;spacingLeft=5;strokeColor=#4C9AFF;html=1;strokeWidth=2;fontSize=12" parent="1" vertex="1">
          <mxGeometry x="1308.99" y="1374" width="290" height="33" as="geometry" />
        </mxCell>
        <mxCell id="EY-6DQ8W8kvqgW8gxiSP-67" value="&lt;sup&gt;&lt;font style=&quot;font-size: 15px;&quot;&gt;Email&lt;/font&gt;&lt;/sup&gt;" style="fillColor=none;strokeColor=none;html=1;fontSize=12;fontStyle=0;align=center;fontColor=#596780;fontStyle=1;fontSize=11" parent="1" vertex="1">
          <mxGeometry x="1311.48" y="1427" width="285" height="20" as="geometry" />
        </mxCell>
        <mxCell id="EY-6DQ8W8kvqgW8gxiSP-68" value="&lt;font style=&quot;font-size: 15px;&quot;&gt;MessinaCake@mail.com&lt;/font&gt;" style="rounded=1;arcSize=9;align=left;spacingLeft=5;strokeColor=#4C9AFF;html=1;strokeWidth=2;fontSize=12" parent="1" vertex="1">
          <mxGeometry x="1308.99" y="1454" width="290" height="33" as="geometry" />
        </mxCell>
        <mxCell id="EY-6DQ8W8kvqgW8gxiSP-70" value="&lt;font style=&quot;font-size: 25px;&quot;&gt;Información de usuario&lt;/font&gt;" style="text;html=1;align=center;verticalAlign=middle;resizable=0;points=[];autosize=1;strokeColor=none;fillColor=none;" parent="1" vertex="1">
          <mxGeometry x="1313.98" y="1190" width="280" height="40" as="geometry" />
        </mxCell>
        <mxCell id="EY-6DQ8W8kvqgW8gxiSP-71" value="&lt;font style=&quot;font-size: 15px;&quot;&gt;Modificar&lt;/font&gt;" style="rounded=1;fillColor=#0057D8;strokeColor=none;html=1;whiteSpace=wrap;fontColor=#ffffff;align=center;verticalAlign=middle;fontStyle=0;fontSize=12;sketch=0;" parent="1" vertex="1">
          <mxGeometry x="1406.1100000000001" y="1620" width="95.75" height="40" as="geometry" />
        </mxCell>
        <mxCell id="EY-6DQ8W8kvqgW8gxiSP-72" value="" style="verticalLabelPosition=bottom;verticalAlign=top;html=1;shadow=0;dashed=0;strokeWidth=1;shape=mxgraph.android.phone2;strokeColor=#314354;fillColor=#647687;fontColor=#ffffff;" parent="1" vertex="1">
          <mxGeometry x="1868" y="1040" width="400" height="760" as="geometry" />
        </mxCell>
        <mxCell id="EY-6DQ8W8kvqgW8gxiSP-73" value="&lt;sup&gt;&lt;font style=&quot;font-size: 15px;&quot;&gt;Nombre&lt;/font&gt;&lt;/sup&gt;" style="fillColor=none;strokeColor=none;html=1;fontSize=12;fontStyle=0;align=center;fontColor=#596780;fontStyle=1;fontSize=11" parent="1" vertex="1">
          <mxGeometry x="1925.5" y="1267" width="285" height="20" as="geometry" />
        </mxCell>
        <mxCell id="EY-6DQ8W8kvqgW8gxiSP-74" value="&lt;font style=&quot;font-size: 15px;&quot;&gt;Messina Cake&lt;/font&gt;" style="rounded=1;arcSize=9;align=left;spacingLeft=5;strokeColor=#4C9AFF;html=1;strokeWidth=2;fontSize=12" parent="1" vertex="1">
          <mxGeometry x="1923.01" y="1294" width="290" height="33" as="geometry" />
        </mxCell>
        <mxCell id="EY-6DQ8W8kvqgW8gxiSP-75" value="&lt;font style=&quot;font-size: 15px;&quot;&gt;Cancelar&lt;/font&gt;" style="rounded=1;fillColor=#0057D8;strokeColor=none;html=1;whiteSpace=wrap;fontColor=#ffffff;align=center;verticalAlign=middle;fontStyle=0;fontSize=12;sketch=0;" parent="1" vertex="1">
          <mxGeometry x="1895.75" y="1120" width="82.28" height="40" as="geometry" />
        </mxCell>
        <mxCell id="EY-6DQ8W8kvqgW8gxiSP-76" value="&lt;font style=&quot;font-size: 15px;&quot;&gt;Contraseña&lt;/font&gt;" style="fillColor=none;strokeColor=none;html=1;fontSize=11;fontStyle=0;align=center;fontColor=#596780;fontStyle=1;fontSize=11" parent="1" vertex="1">
          <mxGeometry x="1925.5" y="1510" width="285" height="20" as="geometry" />
        </mxCell>
        <mxCell id="EY-6DQ8W8kvqgW8gxiSP-77" value="&lt;font style=&quot;font-size: 15px;&quot;&gt;••••••••&lt;/font&gt;" style="rounded=1;arcSize=9;align=left;spacingLeft=5;strokeColor=#4C9AFF;html=1;strokeWidth=2;fontSize=12" parent="1" vertex="1">
          <mxGeometry x="1923" y="1540" width="290" height="33" as="geometry" />
        </mxCell>
        <mxCell id="EY-6DQ8W8kvqgW8gxiSP-78" value="&lt;sup&gt;&lt;font style=&quot;font-size: 15px;&quot;&gt;Usuario&lt;/font&gt;&lt;/sup&gt;" style="fillColor=none;strokeColor=none;html=1;fontSize=12;fontStyle=0;align=center;fontColor=#596780;fontStyle=1;fontSize=11" parent="1" vertex="1">
          <mxGeometry x="1925.5" y="1347" width="285" height="20" as="geometry" />
        </mxCell>
        <mxCell id="EY-6DQ8W8kvqgW8gxiSP-79" value="&lt;font style=&quot;font-size: 15px;&quot;&gt;MessinaCake&lt;/font&gt;" style="rounded=1;arcSize=9;align=left;spacingLeft=5;strokeColor=#4C9AFF;html=1;strokeWidth=2;fontSize=12" parent="1" vertex="1">
          <mxGeometry x="1923.01" y="1374" width="290" height="33" as="geometry" />
        </mxCell>
        <mxCell id="EY-6DQ8W8kvqgW8gxiSP-80" value="&lt;sup&gt;&lt;font style=&quot;font-size: 15px;&quot;&gt;Email&lt;/font&gt;&lt;/sup&gt;" style="fillColor=none;strokeColor=none;html=1;fontSize=12;fontStyle=0;align=center;fontColor=#596780;fontStyle=1;fontSize=11" parent="1" vertex="1">
          <mxGeometry x="1925.5" y="1427" width="285" height="20" as="geometry" />
        </mxCell>
        <mxCell id="EY-6DQ8W8kvqgW8gxiSP-81" value="&lt;font style=&quot;font-size: 15px;&quot;&gt;MessinaCake@mail.com&lt;/font&gt;" style="rounded=1;arcSize=9;align=left;spacingLeft=5;strokeColor=#4C9AFF;html=1;strokeWidth=2;fontSize=12" parent="1" vertex="1">
          <mxGeometry x="1923.01" y="1454" width="290" height="33" as="geometry" />
        </mxCell>
        <mxCell id="EY-6DQ8W8kvqgW8gxiSP-82" value="&lt;font style=&quot;font-size: 25px;&quot;&gt;Editar información de usuario&lt;/font&gt;" style="text;html=1;align=center;verticalAlign=middle;resizable=0;points=[];autosize=1;strokeColor=none;fillColor=none;" parent="1" vertex="1">
          <mxGeometry x="1893" y="1190" width="350" height="40" as="geometry" />
        </mxCell>
        <mxCell id="EY-6DQ8W8kvqgW8gxiSP-83" value="&lt;font style=&quot;font-size: 15px;&quot;&gt;Guardar&lt;/font&gt;" style="rounded=1;fillColor=#0057D8;strokeColor=none;html=1;whiteSpace=wrap;fontColor=#ffffff;align=center;verticalAlign=middle;fontStyle=0;fontSize=12;sketch=0;" parent="1" vertex="1">
          <mxGeometry x="2029.05" y="1620" width="77.9" height="40" as="geometry" />
        </mxCell>
        <mxCell id="EY-6DQ8W8kvqgW8gxiSP-85" value="" style="verticalLabelPosition=bottom;verticalAlign=top;html=1;shadow=0;dashed=0;strokeWidth=1;shape=mxgraph.android.phone2;strokeColor=#314354;fillColor=#647687;fontColor=#ffffff;" parent="1" vertex="1">
          <mxGeometry x="641.02" y="1040" width="400" height="760" as="geometry" />
        </mxCell>
        <mxCell id="EY-6DQ8W8kvqgW8gxiSP-88" value="&lt;font style=&quot;font-size: 15px;&quot;&gt;Cerrar sesión&lt;/font&gt;" style="rounded=1;fillColor=#0057D8;strokeColor=none;html=1;whiteSpace=wrap;fontColor=#ffffff;align=center;verticalAlign=middle;fontStyle=0;fontSize=12;sketch=0;" parent="1" vertex="1">
          <mxGeometry x="668.77" y="1120" width="82.28" height="40" as="geometry" />
        </mxCell>
        <mxCell id="cjB387I_RWza-UjQg0eI-3" value="" style="html=1;verticalLabelPosition=bottom;align=center;labelBackgroundColor=#ffffff;verticalAlign=top;strokeWidth=2;strokeColor=#0080F0;shadow=0;dashed=0;shape=mxgraph.ios7.icons.add;" vertex="1" parent="1">
          <mxGeometry x="921.02" y="1640" width="80" height="80" as="geometry" />
        </mxCell>
        <mxCell id="cjB387I_RWza-UjQg0eI-4" value="" style="image;html=1;image=img/lib/clip_art/general/Empty_Folder_128x128.png" vertex="1" parent="1">
          <mxGeometry x="679.93" y="1180" width="41.09" height="40" as="geometry" />
        </mxCell>
        <mxCell id="cjB387I_RWza-UjQg0eI-5" value="Texto ejemplo" style="text;strokeColor=none;fillColor=none;html=1;fontSize=24;fontStyle=1;verticalAlign=middle;align=left;" vertex="1" parent="1">
          <mxGeometry x="721.02" y="1180" width="100" height="40" as="geometry" />
        </mxCell>
        <mxCell id="cjB387I_RWza-UjQg0eI-6" value="" style="image;html=1;image=img/lib/clip_art/general/Empty_Folder_128x128.png" vertex="1" parent="1">
          <mxGeometry x="679.93" y="1220" width="41.09" height="40" as="geometry" />
        </mxCell>
        <mxCell id="cjB387I_RWza-UjQg0eI-7" value="Texto ejemplo" style="text;strokeColor=none;fillColor=none;html=1;fontSize=24;fontStyle=1;verticalAlign=middle;align=left;" vertex="1" parent="1">
          <mxGeometry x="721.02" y="1220" width="100" height="40" as="geometry" />
        </mxCell>
        <mxCell id="cjB387I_RWza-UjQg0eI-8" value="" style="image;html=1;image=img/lib/clip_art/general/Empty_Folder_128x128.png" vertex="1" parent="1">
          <mxGeometry x="679.93" y="1260" width="41.09" height="40" as="geometry" />
        </mxCell>
        <mxCell id="cjB387I_RWza-UjQg0eI-9" value="Texto ejemplo" style="text;strokeColor=none;fillColor=none;html=1;fontSize=24;fontStyle=1;verticalAlign=middle;align=left;" vertex="1" parent="1">
          <mxGeometry x="721.02" y="1260" width="100" height="40" as="geometry" />
        </mxCell>
        <mxCell id="cjB387I_RWza-UjQg0eI-10" value="" style="image;html=1;image=img/lib/clip_art/general/Empty_Folder_128x128.png" vertex="1" parent="1">
          <mxGeometry x="679.93" y="1300" width="41.09" height="40" as="geometry" />
        </mxCell>
        <mxCell id="cjB387I_RWza-UjQg0eI-11" value="Texto ejemplo" style="text;strokeColor=none;fillColor=none;html=1;fontSize=24;fontStyle=1;verticalAlign=middle;align=left;" vertex="1" parent="1">
          <mxGeometry x="721.02" y="1300" width="100" height="40" as="geometry" />
        </mxCell>
        <mxCell id="cjB387I_RWza-UjQg0eI-12" value="" style="image;html=1;image=img/lib/clip_art/general/Empty_Folder_128x128.png" vertex="1" parent="1">
          <mxGeometry x="679.93" y="1340" width="41.09" height="40" as="geometry" />
        </mxCell>
        <mxCell id="cjB387I_RWza-UjQg0eI-13" value="Texto ejemplo" style="text;strokeColor=none;fillColor=none;html=1;fontSize=24;fontStyle=1;verticalAlign=middle;align=left;" vertex="1" parent="1">
          <mxGeometry x="721.02" y="1340" width="100" height="40" as="geometry" />
        </mxCell>
        <mxCell id="cjB387I_RWza-UjQg0eI-14" value="" style="image;html=1;image=img/lib/clip_art/general/Empty_Folder_128x128.png" vertex="1" parent="1">
          <mxGeometry x="679.93" y="1380" width="41.09" height="40" as="geometry" />
        </mxCell>
        <mxCell id="cjB387I_RWza-UjQg0eI-15" value="Texto ejemplo" style="text;strokeColor=none;fillColor=none;html=1;fontSize=24;fontStyle=1;verticalAlign=middle;align=left;" vertex="1" parent="1">
          <mxGeometry x="721.02" y="1380" width="100" height="40" as="geometry" />
        </mxCell>
        <mxCell id="cjB387I_RWza-UjQg0eI-16" value="" style="image;html=1;image=img/lib/clip_art/general/Empty_Folder_128x128.png" vertex="1" parent="1">
          <mxGeometry x="679.93" y="1420" width="41.09" height="40" as="geometry" />
        </mxCell>
        <mxCell id="cjB387I_RWza-UjQg0eI-17" value="Texto ejemplo" style="text;strokeColor=none;fillColor=none;html=1;fontSize=24;fontStyle=1;verticalAlign=middle;align=left;" vertex="1" parent="1">
          <mxGeometry x="721.02" y="1420" width="100" height="40" as="geometry" />
        </mxCell>
        <mxCell id="cjB387I_RWza-UjQg0eI-18" value="" style="image;html=1;image=img/lib/clip_art/general/Empty_Folder_128x128.png" vertex="1" parent="1">
          <mxGeometry x="679.93" y="1460" width="41.09" height="40" as="geometry" />
        </mxCell>
        <mxCell id="cjB387I_RWza-UjQg0eI-19" value="Texto ejemplo" style="text;strokeColor=none;fillColor=none;html=1;fontSize=24;fontStyle=1;verticalAlign=middle;align=left;" vertex="1" parent="1">
          <mxGeometry x="721.02" y="1460" width="100" height="40" as="geometry" />
        </mxCell>
        <mxCell id="cjB387I_RWza-UjQg0eI-20" value="" style="image;html=1;image=img/lib/clip_art/general/Empty_Folder_128x128.png" vertex="1" parent="1">
          <mxGeometry x="679.93" y="1500" width="41.09" height="40" as="geometry" />
        </mxCell>
        <mxCell id="cjB387I_RWza-UjQg0eI-21" value="Texto ejemplo" style="text;strokeColor=none;fillColor=none;html=1;fontSize=24;fontStyle=1;verticalAlign=middle;align=left;" vertex="1" parent="1">
          <mxGeometry x="721.02" y="1500" width="100" height="40" as="geometry" />
        </mxCell>
        <mxCell id="cjB387I_RWza-UjQg0eI-22" value="" style="image;html=1;image=img/lib/clip_art/general/Empty_Folder_128x128.png" vertex="1" parent="1">
          <mxGeometry x="679.93" y="1540" width="41.09" height="40" as="geometry" />
        </mxCell>
        <mxCell id="cjB387I_RWza-UjQg0eI-23" value="Texto ejemplo" style="text;strokeColor=none;fillColor=none;html=1;fontSize=24;fontStyle=1;verticalAlign=middle;align=left;" vertex="1" parent="1">
          <mxGeometry x="721.02" y="1540" width="100" height="40" as="geometry" />
        </mxCell>
        <mxCell id="cjB387I_RWza-UjQg0eI-24" value="" style="image;html=1;image=img/lib/clip_art/general/Empty_Folder_128x128.png" vertex="1" parent="1">
          <mxGeometry x="679.93" y="1580" width="41.09" height="40" as="geometry" />
        </mxCell>
        <mxCell id="cjB387I_RWza-UjQg0eI-25" value="Texto ejemplo" style="text;strokeColor=none;fillColor=none;html=1;fontSize=24;fontStyle=1;verticalAlign=middle;align=left;" vertex="1" parent="1">
          <mxGeometry x="721.02" y="1580" width="100" height="40" as="geometry" />
        </mxCell>
        <mxCell id="cjB387I_RWza-UjQg0eI-26" value="" style="image;html=1;image=img/lib/clip_art/general/Empty_Folder_128x128.png" vertex="1" parent="1">
          <mxGeometry x="679.93" y="1620" width="41.09" height="40" as="geometry" />
        </mxCell>
        <mxCell id="cjB387I_RWza-UjQg0eI-27" value="Texto ejemplo" style="text;strokeColor=none;fillColor=none;html=1;fontSize=24;fontStyle=1;verticalAlign=middle;align=left;" vertex="1" parent="1">
          <mxGeometry x="721.02" y="1620" width="100" height="40" as="geometry" />
        </mxCell>
        <mxCell id="cjB387I_RWza-UjQg0eI-82" value="" style="verticalLabelPosition=bottom;verticalAlign=top;html=1;shadow=0;dashed=0;strokeWidth=1;shape=mxgraph.android.phone2;strokeColor=#314354;fillColor=#647687;fontColor=#ffffff;" vertex="1" parent="1">
          <mxGeometry x="641.02" y="2040" width="400" height="760" as="geometry" />
        </mxCell>
        <mxCell id="cjB387I_RWza-UjQg0eI-84" value="" style="html=1;verticalLabelPosition=bottom;align=center;labelBackgroundColor=#ffffff;verticalAlign=top;strokeWidth=2;strokeColor=#0080F0;shadow=0;dashed=0;shape=mxgraph.ios7.icons.add;" vertex="1" parent="1">
          <mxGeometry x="921.02" y="2640" width="80" height="80" as="geometry" />
        </mxCell>
        <mxCell id="cjB387I_RWza-UjQg0eI-86" value="Texto ejemplo" style="text;strokeColor=none;fillColor=none;html=1;fontSize=24;fontStyle=1;verticalAlign=middle;align=left;" vertex="1" parent="1">
          <mxGeometry x="721.02" y="2180" width="100" height="40" as="geometry" />
        </mxCell>
        <mxCell id="cjB387I_RWza-UjQg0eI-88" value="Texto ejemplo" style="text;strokeColor=none;fillColor=none;html=1;fontSize=24;fontStyle=1;verticalAlign=middle;align=left;" vertex="1" parent="1">
          <mxGeometry x="721.02" y="2260" width="100" height="40" as="geometry" />
        </mxCell>
        <mxCell id="cjB387I_RWza-UjQg0eI-90" value="Texto ejemplo" style="text;strokeColor=none;fillColor=none;html=1;fontSize=24;fontStyle=1;verticalAlign=middle;align=left;" vertex="1" parent="1">
          <mxGeometry x="721.02" y="2340" width="100" height="40" as="geometry" />
        </mxCell>
        <mxCell id="cjB387I_RWza-UjQg0eI-109" value="" style="dashed=0;labelPosition=right;align=left;shape=mxgraph.gmdl.checkbox;strokeColor=none;fillColor=#676767;strokeWidth=2;aspect=fixed;sketch=0;html=1;" vertex="1" parent="1">
          <mxGeometry x="696.02" y="2192" width="16" height="16" as="geometry" />
        </mxCell>
        <mxCell id="cjB387I_RWza-UjQg0eI-110" value="" style="dashed=0;labelPosition=right;align=left;shape=mxgraph.gmdl.checkbox;strokeColor=#666666;fillColor=none;strokeWidth=2;aspect=fixed;sketch=0;html=1;" vertex="1" parent="1">
          <mxGeometry x="696.02" y="2272" width="16" height="16" as="geometry" />
        </mxCell>
        <mxCell id="cjB387I_RWza-UjQg0eI-111" value="" style="dashed=0;labelPosition=right;align=left;shape=mxgraph.gmdl.checkbox;strokeColor=#666666;fillColor=none;strokeWidth=2;aspect=fixed;sketch=0;html=1;" vertex="1" parent="1">
          <mxGeometry x="696.02" y="2352" width="16" height="16" as="geometry" />
        </mxCell>
        <mxCell id="cjB387I_RWza-UjQg0eI-112" value="Subtítulo" style="text;html=1;align=center;verticalAlign=middle;whiteSpace=wrap;rounded=0;" vertex="1" parent="1">
          <mxGeometry x="721.02" y="2220" width="60" height="30" as="geometry" />
        </mxCell>
        <mxCell id="cjB387I_RWza-UjQg0eI-113" value="&lt;span style=&quot;color: rgb(0, 0, 0); font-family: Helvetica; font-size: 12px; font-style: normal; font-variant-ligatures: normal; font-variant-caps: normal; font-weight: 400; letter-spacing: normal; orphans: 2; text-align: center; text-indent: 0px; text-transform: none; widows: 2; word-spacing: 0px; -webkit-text-stroke-width: 0px; white-space: normal; background-color: rgb(251, 251, 251); text-decoration-thickness: initial; text-decoration-style: initial; text-decoration-color: initial; display: inline !important; float: none;&quot;&gt;Subtítulo&lt;/span&gt;" style="text;whiteSpace=wrap;html=1;" vertex="1" parent="1">
          <mxGeometry x="721.02" y="2300" width="80" height="40" as="geometry" />
        </mxCell>
        <mxCell id="cjB387I_RWza-UjQg0eI-114" value="&lt;span style=&quot;color: rgb(0, 0, 0); font-family: Helvetica; font-size: 12px; font-style: normal; font-variant-ligatures: normal; font-variant-caps: normal; font-weight: 400; letter-spacing: normal; orphans: 2; text-align: center; text-indent: 0px; text-transform: none; widows: 2; word-spacing: 0px; -webkit-text-stroke-width: 0px; white-space: normal; background-color: rgb(251, 251, 251); text-decoration-thickness: initial; text-decoration-style: initial; text-decoration-color: initial; display: inline !important; float: none;&quot;&gt;Subtítulo&lt;/span&gt;" style="text;whiteSpace=wrap;html=1;" vertex="1" parent="1">
          <mxGeometry x="721.02" y="2380" width="80" height="40" as="geometry" />
        </mxCell>
        <mxCell id="cjB387I_RWza-UjQg0eI-116" value="&lt;span style=&quot;color: rgb(0, 0, 0); font-family: Helvetica; font-size: 12px; font-style: normal; font-variant-ligatures: normal; font-variant-caps: normal; font-weight: 400; letter-spacing: normal; orphans: 2; text-indent: 0px; text-transform: none; widows: 2; word-spacing: 0px; -webkit-text-stroke-width: 0px; white-space: normal; background-color: rgb(251, 251, 251); text-decoration-thickness: initial; text-decoration-style: initial; text-decoration-color: initial; float: none; display: inline !important;&quot;&gt;01/05/2025&lt;/span&gt;" style="text;whiteSpace=wrap;html=1;align=left;" vertex="1" parent="1">
          <mxGeometry x="921.02" y="2260" width="90" height="40" as="geometry" />
        </mxCell>
        <mxCell id="cjB387I_RWza-UjQg0eI-117" value="&lt;span style=&quot;color: rgb(0, 0, 0); font-family: Helvetica; font-size: 12px; font-style: normal; font-variant-ligatures: normal; font-variant-caps: normal; font-weight: 400; letter-spacing: normal; orphans: 2; text-indent: 0px; text-transform: none; widows: 2; word-spacing: 0px; -webkit-text-stroke-width: 0px; white-space: normal; background-color: rgb(251, 251, 251); text-decoration-thickness: initial; text-decoration-style: initial; text-decoration-color: initial; float: none; display: inline !important;&quot;&gt;01/05/2025&lt;/span&gt;" style="text;whiteSpace=wrap;html=1;align=left;" vertex="1" parent="1">
          <mxGeometry x="921.02" y="2340" width="90" height="40" as="geometry" />
        </mxCell>
        <mxCell id="cjB387I_RWza-UjQg0eI-118" value="&lt;span style=&quot;color: rgb(0, 0, 0); font-family: Helvetica; font-size: 12px; font-style: normal; font-variant-ligatures: normal; font-variant-caps: normal; font-weight: 400; letter-spacing: normal; orphans: 2; text-indent: 0px; text-transform: none; widows: 2; word-spacing: 0px; -webkit-text-stroke-width: 0px; white-space: normal; background-color: rgb(251, 251, 251); text-decoration-thickness: initial; text-decoration-style: initial; text-decoration-color: initial; float: none; display: inline !important;&quot;&gt;01/05/2025&lt;/span&gt;" style="text;whiteSpace=wrap;html=1;align=left;" vertex="1" parent="1">
          <mxGeometry x="921.02" y="2180" width="90" height="40" as="geometry" />
        </mxCell>
        <mxCell id="cjB387I_RWza-UjQg0eI-119" value="&lt;font style=&quot;font-size: 15px;&quot;&gt;Volver atrás&lt;/font&gt;" style="rounded=1;fillColor=#0057D8;strokeColor=none;html=1;whiteSpace=wrap;fontColor=#ffffff;align=center;verticalAlign=middle;fontStyle=0;fontSize=12;sketch=0;" vertex="1" parent="1">
          <mxGeometry x="668.77" y="2120" width="102.25" height="40" as="geometry" />
        </mxCell>
        <mxCell id="cjB387I_RWza-UjQg0eI-120" value="" style="verticalLabelPosition=bottom;verticalAlign=top;html=1;shadow=0;dashed=0;strokeWidth=1;shape=mxgraph.android.phone2;strokeColor=#314354;fillColor=#647687;fontColor=#ffffff;" vertex="1" parent="1">
          <mxGeometry x="641.02" y="3030" width="400" height="760" as="geometry" />
        </mxCell>
        <mxCell id="cjB387I_RWza-UjQg0eI-121" value="&lt;sup&gt;&lt;font style=&quot;font-size: 15px;&quot;&gt;Título&lt;/font&gt;&lt;/sup&gt;" style="fillColor=none;strokeColor=none;html=1;fontSize=12;fontStyle=0;align=center;fontColor=#596780;fontStyle=1;fontSize=11" vertex="1" parent="1">
          <mxGeometry x="698.51" y="3167" width="285" height="20" as="geometry" />
        </mxCell>
        <mxCell id="cjB387I_RWza-UjQg0eI-122" value="&lt;font style=&quot;font-size: 15px;&quot;&gt;Texto ejemplo&lt;/font&gt;" style="rounded=1;arcSize=9;align=left;spacingLeft=5;strokeColor=#4C9AFF;html=1;strokeWidth=2;fontSize=12" vertex="1" parent="1">
          <mxGeometry x="696.02" y="3194" width="290" height="33" as="geometry" />
        </mxCell>
        <mxCell id="cjB387I_RWza-UjQg0eI-124" value="&lt;font style=&quot;font-size: 15px;&quot;&gt;Volver atrás&lt;/font&gt;" style="rounded=1;fillColor=#0057D8;strokeColor=none;html=1;whiteSpace=wrap;fontColor=#ffffff;align=center;verticalAlign=middle;fontStyle=0;fontSize=12;sketch=0;" vertex="1" parent="1">
          <mxGeometry x="668.77" y="3110" width="102.25" height="40" as="geometry" />
        </mxCell>
        <mxCell id="cjB387I_RWza-UjQg0eI-125" value="&lt;sup&gt;&lt;font style=&quot;font-size: 15px;&quot;&gt;Descripción&lt;/font&gt;&lt;/sup&gt;" style="fillColor=none;strokeColor=none;html=1;fontSize=12;fontStyle=0;align=center;fontColor=#596780;fontStyle=1;fontSize=11" vertex="1" parent="1">
          <mxGeometry x="698.5" y="3407" width="285" height="20" as="geometry" />
        </mxCell>
        <mxCell id="cjB387I_RWza-UjQg0eI-126" value="" style="rounded=1;arcSize=9;align=left;spacingLeft=5;strokeColor=#4C9AFF;html=1;strokeWidth=2;fontSize=12" vertex="1" parent="1">
          <mxGeometry x="696.01" y="3434" width="290" height="196" as="geometry" />
        </mxCell>
        <mxCell id="cjB387I_RWza-UjQg0eI-131" value="&lt;sup&gt;&lt;font style=&quot;font-size: 15px;&quot;&gt;Subtítulo&lt;/font&gt;&lt;/sup&gt;" style="fillColor=none;strokeColor=none;html=1;fontSize=12;fontStyle=0;align=center;fontColor=#596780;fontStyle=1;fontSize=11" vertex="1" parent="1">
          <mxGeometry x="698.51" y="3247" width="285" height="20" as="geometry" />
        </mxCell>
        <mxCell id="cjB387I_RWza-UjQg0eI-132" value="&lt;font style=&quot;font-size: 15px;&quot;&gt;Subtítulo&lt;/font&gt;" style="rounded=1;arcSize=9;align=left;spacingLeft=5;strokeColor=#4C9AFF;html=1;strokeWidth=2;fontSize=12" vertex="1" parent="1">
          <mxGeometry x="696.02" y="3274" width="290" height="33" as="geometry" />
        </mxCell>
        <mxCell id="cjB387I_RWza-UjQg0eI-133" value="&lt;sup&gt;&lt;font style=&quot;font-size: 15px;&quot;&gt;Fecha&lt;/font&gt;&lt;/sup&gt;" style="fillColor=none;strokeColor=none;html=1;fontSize=12;fontStyle=0;align=center;fontColor=#596780;fontStyle=1;fontSize=11" vertex="1" parent="1">
          <mxGeometry x="698.51" y="3327" width="285" height="20" as="geometry" />
        </mxCell>
        <mxCell id="cjB387I_RWza-UjQg0eI-134" value="&lt;font style=&quot;font-size: 15px;&quot;&gt;01/05/2025&lt;/font&gt;" style="rounded=1;arcSize=9;align=center;spacingLeft=5;strokeColor=#4C9AFF;html=1;strokeWidth=2;fontSize=12" vertex="1" parent="1">
          <mxGeometry x="696.02" y="3354" width="290" height="33" as="geometry" />
        </mxCell>
        <mxCell id="cjB387I_RWza-UjQg0eI-136" value="&lt;font style=&quot;font-size: 15px;&quot;&gt;Modificar&lt;/font&gt;" style="rounded=1;fillColor=#0057D8;strokeColor=none;html=1;whiteSpace=wrap;fontColor=#ffffff;align=center;verticalAlign=middle;fontStyle=0;fontSize=12;sketch=0;" vertex="1" parent="1">
          <mxGeometry x="793.1800000000001" y="3650" width="95.75" height="40" as="geometry" />
        </mxCell>
        <mxCell id="cjB387I_RWza-UjQg0eI-137" value="" style="verticalLabelPosition=bottom;verticalAlign=top;html=1;shadow=0;dashed=0;strokeWidth=1;shape=mxgraph.android.phone2;strokeColor=#314354;fillColor=#647687;fontColor=#ffffff;" vertex="1" parent="1">
          <mxGeometry x="1253.98" y="3037" width="400" height="760" as="geometry" />
        </mxCell>
        <mxCell id="cjB387I_RWza-UjQg0eI-138" value="&lt;sup&gt;&lt;font style=&quot;font-size: 15px;&quot;&gt;Título&lt;/font&gt;&lt;/sup&gt;" style="fillColor=none;strokeColor=none;html=1;fontSize=12;fontStyle=0;align=center;fontColor=#596780;fontStyle=1;fontSize=11" vertex="1" parent="1">
          <mxGeometry x="1311.47" y="3174" width="285" height="20" as="geometry" />
        </mxCell>
        <mxCell id="cjB387I_RWza-UjQg0eI-139" value="&lt;font style=&quot;font-size: 15px;&quot;&gt;Texto ejemplo&lt;/font&gt;" style="rounded=1;arcSize=9;align=left;spacingLeft=5;strokeColor=#4C9AFF;html=1;strokeWidth=2;fontSize=12" vertex="1" parent="1">
          <mxGeometry x="1308.98" y="3201" width="290" height="33" as="geometry" />
        </mxCell>
        <mxCell id="cjB387I_RWza-UjQg0eI-141" value="&lt;sup&gt;&lt;font style=&quot;font-size: 15px;&quot;&gt;Descripción&lt;/font&gt;&lt;/sup&gt;" style="fillColor=none;strokeColor=none;html=1;fontSize=12;fontStyle=0;align=center;fontColor=#596780;fontStyle=1;fontSize=11" vertex="1" parent="1">
          <mxGeometry x="1311.46" y="3414" width="285" height="20" as="geometry" />
        </mxCell>
        <mxCell id="cjB387I_RWza-UjQg0eI-142" value="" style="rounded=1;arcSize=9;align=left;spacingLeft=5;strokeColor=#4C9AFF;html=1;strokeWidth=2;fontSize=12" vertex="1" parent="1">
          <mxGeometry x="1308.97" y="3441" width="290" height="196" as="geometry" />
        </mxCell>
        <mxCell id="cjB387I_RWza-UjQg0eI-143" value="&lt;sup&gt;&lt;font style=&quot;font-size: 15px;&quot;&gt;Subtítulo&lt;/font&gt;&lt;/sup&gt;" style="fillColor=none;strokeColor=none;html=1;fontSize=12;fontStyle=0;align=center;fontColor=#596780;fontStyle=1;fontSize=11" vertex="1" parent="1">
          <mxGeometry x="1311.47" y="3254" width="285" height="20" as="geometry" />
        </mxCell>
        <mxCell id="cjB387I_RWza-UjQg0eI-144" value="&lt;font style=&quot;font-size: 15px;&quot;&gt;Subtítulo&lt;/font&gt;" style="rounded=1;arcSize=9;align=left;spacingLeft=5;strokeColor=#4C9AFF;html=1;strokeWidth=2;fontSize=12" vertex="1" parent="1">
          <mxGeometry x="1308.98" y="3281" width="290" height="33" as="geometry" />
        </mxCell>
        <mxCell id="cjB387I_RWza-UjQg0eI-145" value="&lt;sup&gt;&lt;font style=&quot;font-size: 15px;&quot;&gt;Fecha&lt;/font&gt;&lt;/sup&gt;" style="fillColor=none;strokeColor=none;html=1;fontSize=12;fontStyle=0;align=center;fontColor=#596780;fontStyle=1;fontSize=11" vertex="1" parent="1">
          <mxGeometry x="1311.47" y="3334" width="285" height="20" as="geometry" />
        </mxCell>
        <mxCell id="cjB387I_RWza-UjQg0eI-146" value="&lt;font style=&quot;font-size: 15px;&quot;&gt;01/05/2025&lt;/font&gt;" style="rounded=1;arcSize=9;align=center;spacingLeft=5;strokeColor=#4C9AFF;html=1;strokeWidth=2;fontSize=12" vertex="1" parent="1">
          <mxGeometry x="1308.98" y="3361" width="290" height="33" as="geometry" />
        </mxCell>
        <mxCell id="cjB387I_RWza-UjQg0eI-159" value="&lt;font style=&quot;font-size: 15px;&quot;&gt;Cancelar&lt;/font&gt;" style="rounded=1;fillColor=#0057D8;strokeColor=none;html=1;whiteSpace=wrap;fontColor=#ffffff;align=center;verticalAlign=middle;fontStyle=0;fontSize=12;sketch=0;" vertex="1" parent="1">
          <mxGeometry x="1281.77" y="3117" width="82.28" height="40" as="geometry" />
        </mxCell>
        <mxCell id="cjB387I_RWza-UjQg0eI-160" value="&lt;font style=&quot;font-size: 15px;&quot;&gt;Guardar&lt;/font&gt;" style="rounded=1;fillColor=#0057D8;strokeColor=none;html=1;whiteSpace=wrap;fontColor=#ffffff;align=center;verticalAlign=middle;fontStyle=0;fontSize=12;sketch=0;" vertex="1" parent="1">
          <mxGeometry x="1415.01" y="3657" width="77.9" height="40" as="geometry" />
        </mxCell>
        <mxCell id="cjB387I_RWza-UjQg0eI-161" value="&lt;font style=&quot;font-size: 15px;&quot;&gt;Usuario&lt;/font&gt;" style="rounded=1;fillColor=#0057D8;strokeColor=none;html=1;whiteSpace=wrap;fontColor=#ffffff;align=center;verticalAlign=middle;fontStyle=0;fontSize=12;sketch=0;" vertex="1" parent="1">
          <mxGeometry x="921.02" y="1120" width="86.5" height="40" as="geometry" />
        </mxCell>
        <mxCell id="cjB387I_RWza-UjQg0eI-162" value="" style="shape=flexArrow;endArrow=classic;html=1;rounded=0;" edge="1" parent="1" source="EY-6DQ8W8kvqgW8gxiSP-1" target="EY-6DQ8W8kvqgW8gxiSP-85">
          <mxGeometry width="50" height="50" relative="1" as="geometry">
            <mxPoint x="830" y="840" as="sourcePoint" />
            <mxPoint x="900" y="1020" as="targetPoint" />
          </mxGeometry>
        </mxCell>
        <mxCell id="cjB387I_RWza-UjQg0eI-164" value="" style="shape=flexArrow;endArrow=classic;html=1;rounded=0;" edge="1" parent="1" source="EY-6DQ8W8kvqgW8gxiSP-1" target="EY-6DQ8W8kvqgW8gxiSP-10">
          <mxGeometry width="50" height="50" relative="1" as="geometry">
            <mxPoint x="850" y="590" as="sourcePoint" />
            <mxPoint x="900" y="540" as="targetPoint" />
          </mxGeometry>
        </mxCell>
        <mxCell id="cjB387I_RWza-UjQg0eI-166" value="" style="shape=flexArrow;endArrow=classic;html=1;rounded=0;" edge="1" parent="1" source="EY-6DQ8W8kvqgW8gxiSP-1" target="EY-6DQ8W8kvqgW8gxiSP-38">
          <mxGeometry width="50" height="50" relative="1" as="geometry">
            <mxPoint x="850" y="590" as="sourcePoint" />
            <mxPoint x="900" y="540" as="targetPoint" />
          </mxGeometry>
        </mxCell>
        <mxCell id="cjB387I_RWza-UjQg0eI-167" value="" style="shape=flexArrow;endArrow=classic;html=1;rounded=0;" edge="1" parent="1" source="EY-6DQ8W8kvqgW8gxiSP-85" target="EY-6DQ8W8kvqgW8gxiSP-54">
          <mxGeometry width="50" height="50" relative="1" as="geometry">
            <mxPoint x="850" y="1790" as="sourcePoint" />
            <mxPoint x="900" y="1740" as="targetPoint" />
          </mxGeometry>
        </mxCell>
        <mxCell id="cjB387I_RWza-UjQg0eI-168" value="" style="shape=flexArrow;endArrow=classic;html=1;rounded=0;" edge="1" parent="1" source="EY-6DQ8W8kvqgW8gxiSP-54" target="EY-6DQ8W8kvqgW8gxiSP-72">
          <mxGeometry width="50" height="50" relative="1" as="geometry">
            <mxPoint x="850" y="1790" as="sourcePoint" />
            <mxPoint x="900" y="1740" as="targetPoint" />
          </mxGeometry>
        </mxCell>
        <mxCell id="cjB387I_RWza-UjQg0eI-169" value="" style="shape=flexArrow;endArrow=classic;html=1;rounded=0;" edge="1" parent="1" source="EY-6DQ8W8kvqgW8gxiSP-85" target="cjB387I_RWza-UjQg0eI-82">
          <mxGeometry width="50" height="50" relative="1" as="geometry">
            <mxPoint x="850" y="1790" as="sourcePoint" />
            <mxPoint x="900" y="1740" as="targetPoint" />
          </mxGeometry>
        </mxCell>
        <mxCell id="cjB387I_RWza-UjQg0eI-170" value="" style="shape=flexArrow;endArrow=classic;html=1;rounded=0;" edge="1" parent="1" source="cjB387I_RWza-UjQg0eI-82" target="cjB387I_RWza-UjQg0eI-120">
          <mxGeometry width="50" height="50" relative="1" as="geometry">
            <mxPoint x="850" y="3250" as="sourcePoint" />
            <mxPoint x="900" y="3200" as="targetPoint" />
          </mxGeometry>
        </mxCell>
        <mxCell id="cjB387I_RWza-UjQg0eI-171" value="" style="shape=flexArrow;endArrow=classic;html=1;rounded=0;" edge="1" parent="1" source="cjB387I_RWza-UjQg0eI-120" target="cjB387I_RWza-UjQg0eI-137">
          <mxGeometry width="50" height="50" relative="1" as="geometry">
            <mxPoint x="850" y="3250" as="sourcePoint" />
            <mxPoint x="900" y="3200" as="targetPoint" />
          </mxGeometry>
        </mxCell>
      </root>
    </mxGraphModel>
  </diagram>
</mxfile>
